G04*
G04 #@! TF.GenerationSoftware,Altium Limited,Altium Designer,20.0.13 (296)*
G04*
G04 Layer_Physical_Order=2*
G04 Layer_Color=16711680*
%FSLAX25Y25*%
%MOIN*%
G70*
G01*
G75*
%ADD13R,0.05118X0.02756*%
%ADD14R,0.03543X0.02362*%
%ADD19C,0.01968*%
%ADD20O,0.07874X0.06299*%
%ADD21R,0.07874X0.06299*%
%ADD22C,0.02362*%
G36*
X62992Y53673D02*
X59082Y49764D01*
X51968D01*
Y41102D01*
X62205D01*
Y46639D01*
X62555Y46928D01*
X62992Y46742D01*
Y30744D01*
X62530Y30553D01*
X60910Y32173D01*
Y32574D01*
X61499Y33340D01*
X61917Y34350D01*
X61994Y34933D01*
X52180D01*
X52256Y34350D01*
X52675Y33340D01*
X53340Y32473D01*
X54207Y31808D01*
X55216Y31390D01*
X56299Y31248D01*
X56497D01*
X56663Y30413D01*
X57142Y29697D01*
X62992Y23846D01*
Y2953D01*
X2953D01*
Y75787D01*
X62992D01*
Y53673D01*
D02*
G37*
%LPC*%
G36*
X57874Y39619D02*
X57587D01*
Y35933D01*
X61994D01*
X61917Y36516D01*
X61499Y37526D01*
X60834Y38393D01*
X59967Y39058D01*
X58957Y39476D01*
X57874Y39619D01*
D02*
G37*
G36*
X56587D02*
X56299D01*
X55216Y39476D01*
X54207Y39058D01*
X53340Y38393D01*
X52675Y37526D01*
X52256Y36516D01*
X52180Y35933D01*
X56587D01*
Y39619D01*
D02*
G37*
G36*
X40854Y22794D02*
Y21169D01*
X42479D01*
X42409Y21520D01*
X41927Y22242D01*
X41205Y22724D01*
X40854Y22794D01*
D02*
G37*
G36*
X39854D02*
X39503Y22724D01*
X38782Y22242D01*
X38300Y21520D01*
X38230Y21169D01*
X39854D01*
Y22794D01*
D02*
G37*
G36*
X42479Y20169D02*
X40854D01*
Y18545D01*
X41205Y18615D01*
X41927Y19097D01*
X42409Y19818D01*
X42479Y20169D01*
D02*
G37*
G36*
X39854D02*
X38230D01*
X38300Y19818D01*
X38782Y19097D01*
X39503Y18615D01*
X39854Y18545D01*
Y20169D01*
D02*
G37*
%LPD*%
D13*
X70866Y47441D02*
D03*
Y54921D02*
D03*
D14*
Y25591D02*
D03*
Y19685D02*
D03*
D19*
X70276D02*
X70866D01*
X58703Y31258D02*
X70276Y19685D01*
X58703Y31258D02*
Y33817D01*
X57087Y35433D02*
X58703Y33817D01*
X70866Y25591D02*
Y47441D01*
X57087Y45433D02*
X57874D01*
X66969Y54527D01*
X70472D01*
X70866Y54921D01*
D20*
X57087Y35433D02*
D03*
D21*
Y45433D02*
D03*
D22*
X40354Y20669D02*
D03*
M02*
